<?xml version="1.0" encoding="UTF-8" standalone="no"?>
<!DOCTYPE svg PUBLIC "-//W3C//DTD SVG 1.1//EN" "http://www.w3.org/Graphics/SVG/1.1/DTD/svg11.dtd">
<svg width="100%" height="100%" viewBox="0 0 3402 4725" version="1.1" xmlns="http://www.w3.org/2000/svg" xmlns:xlink="http://www.w3.org/1999/xlink" xml:space="preserve" xmlns:serif="http://www.serif.com/" style="fill-rule:evenodd;clip-rule:evenodd;stroke-linejoin:round;stroke-miterlimit:2;">
    <g transform="matrix(1,0,0,1,-779.488699,-118.110525)">
        <g transform="matrix(16.180623,0,0,16.180623,-24881.684929,-3588.31359)">
            <path d="M1603.44,410.092C1600.22,410.092 1597.6,412.712 1597.6,415.932C1597.6,419.151 1600.22,421.771 1603.44,421.771L1778.63,421.771C1781.85,421.771 1784.47,419.151 1784.47,415.932C1784.47,412.712 1781.85,410.092 1778.63,410.092L1603.44,410.092ZM1778.63,433.451L1603.44,433.451C1593.78,433.451 1585.92,425.592 1585.92,415.932C1585.92,406.271 1593.78,398.413 1603.44,398.413L1778.63,398.413C1788.29,398.413 1796.15,406.271 1796.15,415.932C1796.15,425.592 1788.29,433.451 1778.63,433.451Z" style="fill:rgb(184,116,79);fill-rule:nonzero;"/>
        </g>
        <g transform="matrix(16.180623,0,0,16.180623,-24881.684929,-3588.31359)">
            <path d="M1610.13,433.451L1618.42,494.213C1619.59,502.851 1627.06,509.366 1635.78,509.366L1746.3,509.366C1755.01,509.366 1762.48,502.851 1763.66,494.213L1771.94,433.451L1610.13,433.451ZM1746.3,521.045L1635.78,521.045C1621.25,521.045 1608.81,510.19 1606.84,495.793L1596.75,421.771L1785.32,421.771L1775.23,495.793C1773.26,510.19 1760.83,521.045 1746.3,521.045Z" style="fill:rgb(184,116,79);fill-rule:nonzero;"/>
        </g>
        <g transform="matrix(16.180623,0,0,16.180623,-24881.684929,-3588.31359)">
            <path d="M1691.04,497.687C1687.81,497.687 1685.2,495.072 1685.2,491.847L1685.2,456.809C1685.2,453.584 1687.81,450.969 1691.04,450.969C1694.26,450.969 1696.88,453.584 1696.88,456.809L1696.88,491.847C1696.88,495.072 1694.26,497.687 1691.04,497.687Z" style="fill:rgb(184,116,79);fill-rule:nonzero;"/>
        </g>
        <g transform="matrix(16.180623,0,0,16.180623,-24881.684929,-3588.31359)">
            <path d="M1726.07,497.689C1725.46,497.689 1724.84,497.592 1724.23,497.387C1721.17,496.366 1719.52,493.059 1720.54,489.999L1732.22,454.961C1733.24,451.905 1736.52,450.234 1739.6,451.269C1742.66,452.29 1744.31,455.597 1743.29,458.657L1731.61,493.695C1730.79,496.141 1728.52,497.689 1726.07,497.689Z" style="fill:rgb(184,116,79);fill-rule:nonzero;"/>
        </g>
        <g transform="matrix(16.180623,0,0,16.180623,-24881.684929,-3588.31359)">
            <path d="M1656,497.689C1653.55,497.689 1651.28,496.141 1650.46,493.695L1638.78,458.657C1637.76,455.597 1639.41,452.29 1642.47,451.269C1645.56,450.234 1648.83,451.905 1649.86,454.961L1661.54,489.999C1662.56,493.059 1660.9,496.366 1657.85,497.387C1657.23,497.592 1656.61,497.689 1656,497.689Z" style="fill:rgb(184,116,79);fill-rule:nonzero;"/>
        </g>
        <g transform="matrix(16.180623,0,0,16.180623,-24881.684929,-3588.31359)">
            <path d="M1691.04,275.78C1681.38,275.78 1673.52,283.639 1673.52,293.299C1673.52,302.959 1681.38,310.818 1691.04,310.818C1700.7,310.818 1708.55,302.959 1708.55,293.299C1708.55,283.639 1700.7,275.78 1691.04,275.78ZM1691.04,322.497C1674.94,322.497 1661.84,309.398 1661.84,293.299C1661.84,277.2 1674.94,264.101 1691.04,264.101C1707.13,264.101 1720.23,277.2 1720.23,293.299C1720.23,309.398 1707.13,322.497 1691.04,322.497Z" style="fill:rgb(184,116,79);fill-rule:nonzero;"/>
        </g>
        <g transform="matrix(16.180623,0,0,16.180623,-24881.684929,-3588.31359)">
            <path d="M1691.04,275.78C1690.66,275.78 1690.28,275.743 1689.89,275.666C1686.73,275.033 1684.68,271.957 1685.31,268.794C1685.58,267.448 1692.29,235.704 1724.93,229.177C1728.12,228.555 1731.17,230.6 1731.8,233.756C1732.43,236.918 1730.38,239.995 1727.22,240.628C1702.13,245.646 1696.81,270.833 1696.76,271.087C1696.21,273.861 1693.77,275.78 1691.04,275.78Z" style="fill:rgb(184,116,79);fill-rule:nonzero;"/>
        </g>
        <g transform="matrix(16.180623,0,0,16.180623,-24881.684929,-3588.31359)">
            <path d="M1609.49,398.413L1772.58,398.413C1769.58,356.049 1734.15,322.497 1691.04,322.497C1647.92,322.497 1612.49,356.049 1609.49,398.413ZM1784.47,410.092L1597.6,410.092L1597.6,404.252C1597.6,352.733 1639.52,310.818 1691.04,310.818C1742.55,310.818 1784.47,352.733 1784.47,404.252L1784.47,410.092Z" style="fill:rgb(184,116,79);fill-rule:nonzero;"/>
        </g>
        <g transform="matrix(16.180623,0,0,16.180623,-24881.684929,-3588.31359)">
            <path d="M1641.18,369.625C1639.88,369.625 1638.58,369.197 1637.5,368.316C1634.99,366.28 1634.62,362.602 1636.65,360.102C1647.15,347.19 1661.88,338.408 1678.13,335.371C1681.27,334.761 1684.35,336.871 1684.94,340.039C1685.53,343.207 1683.44,346.258 1680.27,346.851C1666.74,349.38 1654.47,356.703 1645.71,367.469C1644.56,368.889 1642.88,369.625 1641.18,369.625Z" style="fill:rgb(184,116,79);fill-rule:nonzero;"/>
        </g>
    </g>
</svg>
