<svg xmlns="http://www.w3.org/2000/svg" xmlns:xlink="http://www.w3.org/1999/xlink" width="121" zoomAndPan="magnify" viewBox="0 0 90.75 91.5" height="122" preserveAspectRatio="xMidYMid meet" version="1.0"><defs><g/><clipPath id="5a4ddf5e05"><path d="M 0.121094 0 L 90.304688 0 L 90.304688 90.886719 L 0.121094 90.886719 Z M 0.121094 0 " clip-rule="nonzero"/></clipPath><clipPath id="a2a62b5960"><path d="M 23.992188 0 L 66.433594 0 C 79.617188 0 90.304688 10.6875 90.304688 23.871094 L 90.304688 66.75 C 90.304688 79.933594 79.617188 90.621094 66.433594 90.621094 L 23.992188 90.621094 C 10.808594 90.621094 0.121094 79.933594 0.121094 66.75 L 0.121094 23.871094 C 0.121094 10.6875 10.808594 0 23.992188 0 Z M 23.992188 0 " clip-rule="nonzero"/></clipPath><clipPath id="7b51b9810c"><path d="M 0.121094 0 L 90.304688 0 L 90.304688 90.703125 L 0.121094 90.703125 Z M 0.121094 0 " clip-rule="nonzero"/></clipPath><clipPath id="fb9d0570be"><path d="M 23.992188 0 L 66.433594 0 C 79.617188 0 90.304688 10.6875 90.304688 23.871094 L 90.304688 66.75 C 90.304688 79.933594 79.617188 90.621094 66.433594 90.621094 L 23.992188 90.621094 C 10.808594 90.621094 0.121094 79.933594 0.121094 66.75 L 0.121094 23.871094 C 0.121094 10.6875 10.808594 0 23.992188 0 Z M 23.992188 0 " clip-rule="nonzero"/></clipPath><clipPath id="ceebf5ad86"><rect x="0" width="91" y="0" height="91"/></clipPath><clipPath id="4e3b0bfb26"><path d="M 0.121094 0 L 90.378906 0 L 90.378906 90.257812 L 0.121094 90.257812 Z M 0.121094 0 " clip-rule="nonzero"/></clipPath><clipPath id="6d8b577231"><path d="M 23.988281 0 L 66.429688 0 C 79.613281 0 90.296875 10.6875 90.296875 23.871094 L 90.296875 66.75 C 90.296875 79.929688 79.613281 90.617188 66.429688 90.617188 L 23.988281 90.617188 C 10.808594 90.617188 0.121094 79.929688 0.121094 66.75 L 0.121094 23.871094 C 0.121094 10.6875 10.808594 0 23.988281 0 Z M 23.988281 0 " clip-rule="nonzero"/></clipPath><clipPath id="5065ffde1b"><path d="M 29 44 L 62 44 L 62 53.882812 L 29 53.882812 Z M 29 44 " clip-rule="nonzero"/></clipPath><clipPath id="be1f1d693e"><path d="M 23.179688 25.539062 L 67.191406 25.539062 L 67.191406 44 L 23.179688 44 Z M 23.179688 25.539062 " clip-rule="nonzero"/></clipPath><clipPath id="53148107bb"><rect x="0" width="66" y="0" height="21"/></clipPath></defs><g clip-path="url(#5a4ddf5e05)"><g clip-path="url(#a2a62b5960)"><g transform="matrix(1, 0, 0, 1, 0.000000000000000028, 0.000000000000004566)"><g clip-path="url(#ceebf5ad86)"><g clip-path="url(#7b51b9810c)"><g clip-path="url(#fb9d0570be)"><path fill="#ffffff" d="M 0.121094 0 L 90.304688 0 L 90.304688 90.535156 L 0.121094 90.535156 Z M 0.121094 0 " fill-opacity="1" fill-rule="nonzero"/></g></g></g></g></g></g><g clip-path="url(#4e3b0bfb26)"><g clip-path="url(#6d8b577231)"><path stroke-linecap="butt" transform="matrix(0.745924, 0, 0, 0.745924, 0.122283, 0.00000298392)" fill="none" stroke-linejoin="miter" d="M 31.99522 -0.0000040003 L 88.892991 -0.0000040003 C 106.567172 -0.0000040003 120.889805 14.327865 120.889805 32.002047 L 120.889805 89.486339 C 120.889805 107.155283 106.567172 121.483152 88.892991 121.483152 L 31.99522 121.483152 C 14.326276 121.483152 -0.00159381 107.155283 -0.00159381 89.486339 L -0.00159381 32.002047 C -0.00159381 14.327865 14.326276 -0.0000040003 31.99522 -0.0000040003 Z M 31.99522 -0.0000040003 " stroke="#c88b54" stroke-width="8" stroke-opacity="1" stroke-miterlimit="4"/></g></g><g clip-path="url(#5065ffde1b)"><path fill="#94461b" d="M 55.214844 53.890625 L 35.414062 53.890625 C 34.996094 53.890625 34.582031 53.847656 34.175781 53.765625 C 33.765625 53.683594 33.367188 53.5625 32.980469 53.402344 C 32.59375 53.242188 32.226562 53.046875 31.878906 52.816406 C 31.535156 52.582031 31.210938 52.320312 30.917969 52.023438 C 30.621094 51.726562 30.359375 51.40625 30.125 51.058594 C 29.894531 50.710938 29.695312 50.34375 29.535156 49.960938 C 29.375 49.574219 29.253906 49.175781 29.175781 48.765625 C 29.09375 48.355469 29.050781 47.941406 29.050781 47.523438 L 29.050781 45.402344 C 29.050781 45.207031 29.121094 45.042969 29.257812 44.902344 C 29.394531 44.765625 29.5625 44.695312 29.757812 44.695312 C 29.953125 44.695312 30.121094 44.765625 30.257812 44.902344 C 30.394531 45.042969 30.464844 45.207031 30.464844 45.402344 L 30.464844 47.523438 C 30.464844 47.851562 30.496094 48.171875 30.5625 48.492188 C 30.625 48.808594 30.71875 49.117188 30.84375 49.417969 C 30.96875 49.71875 31.121094 50.003906 31.300781 50.273438 C 31.480469 50.542969 31.6875 50.792969 31.917969 51.023438 C 32.144531 51.253906 32.394531 51.457031 32.667969 51.640625 C 32.9375 51.820312 33.222656 51.972656 33.523438 52.097656 C 33.820312 52.222656 34.132812 52.316406 34.449219 52.378906 C 34.769531 52.441406 35.089844 52.476562 35.414062 52.476562 L 55.214844 52.476562 C 55.539062 52.476562 55.863281 52.441406 56.179688 52.378906 C 56.5 52.316406 56.808594 52.222656 57.109375 52.097656 C 57.410156 51.972656 57.695312 51.820312 57.964844 51.640625 C 58.234375 51.457031 58.484375 51.253906 58.714844 51.023438 C 58.945312 50.792969 59.148438 50.542969 59.328125 50.273438 C 59.511719 50.003906 59.664062 49.71875 59.789062 49.417969 C 59.910156 49.117188 60.007812 48.808594 60.070312 48.492188 C 60.132812 48.171875 60.164062 47.851562 60.164062 47.523438 L 60.164062 45.402344 C 60.164062 45.207031 60.234375 45.042969 60.371094 44.902344 C 60.511719 44.765625 60.675781 44.695312 60.871094 44.695312 C 61.066406 44.695312 61.234375 44.765625 61.371094 44.902344 C 61.511719 45.042969 61.578125 45.207031 61.578125 45.402344 L 61.578125 47.523438 C 61.578125 47.941406 61.539062 48.355469 61.457031 48.765625 C 61.375 49.175781 61.253906 49.574219 61.09375 49.960938 C 60.933594 50.34375 60.738281 50.710938 60.503906 51.058594 C 60.273438 51.40625 60.007812 51.726562 59.714844 52.023438 C 59.417969 52.320312 59.097656 52.582031 58.75 52.816406 C 58.402344 53.046875 58.035156 53.242188 57.648438 53.402344 C 57.265625 53.5625 56.867188 53.683594 56.457031 53.765625 C 56.046875 53.847656 55.632812 53.890625 55.214844 53.890625 Z M 55.214844 53.890625 " fill-opacity="1" fill-rule="nonzero"/></g><g clip-path="url(#be1f1d693e)"><path fill="#94461b" d="M 28.351562 43.988281 C 27.992188 43.988281 27.636719 43.953125 27.28125 43.878906 C 26.78125 43.769531 26.308594 43.585938 25.863281 43.328125 C 25.417969 43.074219 25.023438 42.753906 24.679688 42.375 C 24.332031 41.996094 24.054688 41.574219 23.839844 41.109375 C 23.625 40.640625 23.484375 40.152344 23.421875 39.644531 C 23.359375 39.136719 23.378906 38.628906 23.472656 38.125 C 23.566406 37.621094 23.738281 37.140625 23.980469 36.691406 C 24.222656 36.238281 24.53125 35.835938 24.898438 35.480469 C 25.269531 35.121094 25.683594 34.832031 26.144531 34.605469 C 28.375 29.289062 36.191406 25.601562 45.316406 25.601562 C 54.4375 25.601562 62.253906 29.289062 64.488281 34.605469 C 64.796875 34.757812 65.085938 34.9375 65.355469 35.152344 C 65.625 35.367188 65.871094 35.605469 66.089844 35.867188 C 66.3125 36.132812 66.503906 36.417969 66.664062 36.71875 C 66.824219 37.023438 66.953125 37.339844 67.046875 37.671875 C 67.144531 38.003906 67.203125 38.339844 67.226562 38.683594 C 67.253906 39.027344 67.242188 39.367188 67.195312 39.707031 C 67.148438 40.050781 67.066406 40.382812 66.953125 40.707031 C 66.835938 41.03125 66.6875 41.339844 66.507812 41.632812 C 66.328125 41.925781 66.121094 42.195312 65.882812 42.445312 C 65.644531 42.695312 65.386719 42.917969 65.101562 43.113281 C 64.820312 43.308594 64.519531 43.472656 64.203125 43.605469 C 63.886719 43.738281 63.558594 43.835938 63.21875 43.902344 C 62.882812 43.964844 62.539062 43.996094 62.195312 43.988281 C 61.851562 43.980469 61.511719 43.941406 61.179688 43.863281 C 60.84375 43.785156 60.519531 43.675781 60.207031 43.53125 C 59.894531 43.386719 59.601562 43.210938 59.324219 43.003906 C 58.976562 42.710938 58.574219 42.554688 58.117188 42.539062 C 57.664062 42.523438 57.25 42.648438 56.882812 42.917969 C 56.445312 43.265625 55.960938 43.53125 55.433594 43.714844 C 54.90625 43.898438 54.363281 43.988281 53.804688 43.988281 C 53.246094 43.988281 52.703125 43.898438 52.175781 43.714844 C 51.648438 43.53125 51.167969 43.265625 50.730469 42.917969 C 50.386719 42.648438 50 42.515625 49.566406 42.515625 C 49.132812 42.515625 48.742188 42.648438 48.402344 42.917969 C 47.964844 43.265625 47.480469 43.53125 46.953125 43.714844 C 46.425781 43.898438 45.882812 43.992188 45.324219 43.992188 C 44.761719 43.992188 44.21875 43.898438 43.691406 43.714844 C 43.164062 43.53125 42.679688 43.265625 42.242188 42.917969 C 41.902344 42.648438 41.511719 42.515625 41.078125 42.515625 C 40.644531 42.515625 40.257812 42.648438 39.914062 42.917969 C 39.476562 43.265625 38.996094 43.53125 38.46875 43.714844 C 37.941406 43.898438 37.398438 43.988281 36.839844 43.988281 C 36.28125 43.988281 35.738281 43.898438 35.210938 43.714844 C 34.683594 43.53125 34.199219 43.265625 33.761719 42.917969 C 33.394531 42.648438 32.980469 42.523438 32.527344 42.539062 C 32.070312 42.554688 31.667969 42.710938 31.320312 43.003906 C 30.441406 43.664062 29.453125 43.992188 28.351562 43.988281 Z M 45.316406 27.015625 C 36.75 27.015625 29.195312 30.535156 27.351562 35.378906 C 27.28125 35.570312 27.152344 35.703125 26.96875 35.78125 C 26.738281 35.878906 26.519531 36 26.316406 36.140625 C 26.109375 36.285156 25.921875 36.449219 25.753906 36.632812 C 25.582031 36.816406 25.433594 37.015625 25.304688 37.230469 C 25.179688 37.445312 25.074219 37.671875 24.996094 37.90625 C 24.914062 38.144531 24.859375 38.386719 24.832031 38.636719 C 24.804688 38.882812 24.800781 39.132812 24.828125 39.382812 C 24.851562 39.628906 24.902344 39.875 24.976562 40.113281 C 25.054688 40.351562 25.152344 40.578125 25.277344 40.796875 C 25.402344 41.011719 25.546875 41.214844 25.714844 41.398438 C 25.882812 41.585938 26.066406 41.753906 26.269531 41.898438 C 26.472656 42.046875 26.6875 42.171875 26.914062 42.269531 C 27.144531 42.371094 27.382812 42.449219 27.625 42.5 C 27.871094 42.550781 28.117188 42.574219 28.367188 42.574219 C 28.617188 42.570312 28.867188 42.542969 29.109375 42.488281 C 29.355469 42.433594 29.589844 42.355469 29.816406 42.25 C 30.042969 42.148438 30.257812 42.019531 30.460938 41.871094 C 30.753906 41.636719 31.082031 41.457031 31.4375 41.328125 C 31.792969 41.203125 32.15625 41.136719 32.535156 41.132812 C 32.914062 41.125 33.28125 41.179688 33.640625 41.296875 C 34 41.414062 34.328125 41.585938 34.632812 41.808594 C 34.945312 42.054688 35.292969 42.238281 35.667969 42.367188 C 36.042969 42.496094 36.429688 42.5625 36.828125 42.5625 C 37.226562 42.5625 37.613281 42.496094 37.992188 42.367188 C 38.367188 42.238281 38.710938 42.054688 39.027344 41.808594 C 39.320312 41.582031 39.640625 41.40625 39.988281 41.285156 C 40.339844 41.164062 40.699219 41.101562 41.070312 41.101562 C 41.441406 41.101562 41.800781 41.164062 42.152344 41.285156 C 42.503906 41.40625 42.824219 41.582031 43.117188 41.808594 C 43.429688 42.054688 43.777344 42.238281 44.152344 42.367188 C 44.53125 42.496094 44.917969 42.5625 45.316406 42.5625 C 45.710938 42.5625 46.101562 42.496094 46.476562 42.367188 C 46.851562 42.238281 47.199219 42.054688 47.511719 41.808594 C 47.804688 41.582031 48.125 41.40625 48.476562 41.285156 C 48.828125 41.164062 49.1875 41.101562 49.558594 41.101562 C 49.929688 41.101562 50.289062 41.164062 50.640625 41.285156 C 50.988281 41.40625 51.308594 41.582031 51.601562 41.808594 C 51.917969 42.054688 52.261719 42.238281 52.636719 42.367188 C 53.015625 42.496094 53.402344 42.558594 53.800781 42.5625 C 54.199219 42.558594 54.585938 42.496094 54.960938 42.367188 C 55.335938 42.238281 55.683594 42.054688 55.996094 41.808594 C 56.300781 41.582031 56.628906 41.414062 56.988281 41.296875 C 57.347656 41.179688 57.71875 41.125 58.09375 41.128906 C 58.472656 41.136719 58.839844 41.203125 59.191406 41.328125 C 59.546875 41.457031 59.875 41.636719 60.167969 41.871094 C 60.582031 42.179688 61.042969 42.386719 61.546875 42.496094 C 62.050781 42.605469 62.554688 42.605469 63.058594 42.496094 C 63.425781 42.414062 63.773438 42.277344 64.09375 42.085938 C 64.417969 41.894531 64.703125 41.660156 64.953125 41.375 C 65.199219 41.09375 65.398438 40.78125 65.546875 40.4375 C 65.691406 40.089844 65.785156 39.730469 65.816406 39.355469 C 65.851562 38.984375 65.824219 38.613281 65.742188 38.246094 C 65.65625 37.882812 65.519531 37.539062 65.324219 37.214844 C 65.128906 36.894531 64.890625 36.613281 64.605469 36.367188 C 64.324219 36.121094 64.007812 35.925781 63.660156 35.78125 C 63.476562 35.703125 63.347656 35.570312 63.277344 35.378906 C 61.433594 30.535156 53.878906 27.015625 45.316406 27.015625 Z M 45.316406 27.015625 " fill-opacity="1" fill-rule="nonzero"/></g><path fill="#94461b" d="M 45.316406 31.96875 C 45.121094 31.96875 44.953125 31.898438 44.816406 31.761719 C 44.675781 31.621094 44.609375 31.457031 44.609375 31.261719 L 44.609375 29.847656 C 44.609375 29.652344 44.675781 29.484375 44.816406 29.347656 C 44.953125 29.207031 45.121094 29.140625 45.316406 29.140625 C 45.511719 29.140625 45.675781 29.207031 45.816406 29.347656 C 45.953125 29.484375 46.023438 29.652344 46.023438 29.847656 L 46.023438 31.261719 C 46.023438 31.457031 45.953125 31.621094 45.816406 31.761719 C 45.675781 31.898438 45.511719 31.96875 45.316406 31.96875 Z M 45.316406 31.96875 " fill-opacity="1" fill-rule="nonzero"/><path fill="#94461b" d="M 49.316406 30.3125 C 49.121094 30.3125 48.953125 30.242188 48.816406 30.101562 L 47.816406 29.101562 C 47.671875 28.964844 47.601562 28.796875 47.601562 28.601562 C 47.597656 28.402344 47.667969 28.234375 47.808594 28.09375 C 47.945312 27.953125 48.117188 27.886719 48.3125 27.886719 C 48.511719 27.890625 48.679688 27.960938 48.816406 28.105469 L 49.816406 29.101562 C 50.039062 29.328125 50.089844 29.582031 49.96875 29.875 C 49.847656 30.164062 49.628906 30.308594 49.316406 30.3125 Z M 49.316406 30.3125 " fill-opacity="1" fill-rule="nonzero"/><path fill="#94461b" d="M 41.316406 30.3125 C 41 30.308594 40.78125 30.164062 40.660156 29.875 C 40.542969 29.582031 40.59375 29.328125 40.816406 29.101562 L 41.816406 28.105469 C 41.953125 27.96875 42.121094 27.902344 42.3125 27.90625 C 42.503906 27.90625 42.667969 27.976562 42.804688 28.113281 C 42.941406 28.25 43.011719 28.414062 43.011719 28.605469 C 43.015625 28.800781 42.949219 28.964844 42.816406 29.101562 L 41.816406 30.101562 C 41.675781 30.242188 41.511719 30.3125 41.316406 30.3125 Z M 41.316406 30.3125 " fill-opacity="1" fill-rule="nonzero"/><g transform="matrix(1, 0, 0, 1, 13, 57)"><g clip-path="url(#53148107bb)"><g fill="#b8744f" fill-opacity="1"><g transform="translate(0.271458, 15.370494)"><g><path d="M 4.109375 0.09375 C 3.472656 0.09375 2.90625 -0.015625 2.40625 -0.234375 C 1.90625 -0.460938 1.507812 -0.773438 1.21875 -1.171875 C 0.9375 -1.578125 0.789062 -2.039062 0.78125 -2.5625 L 2.125 -2.5625 C 2.164062 -2.113281 2.347656 -1.734375 2.671875 -1.421875 C 3.003906 -1.117188 3.484375 -0.96875 4.109375 -0.96875 C 4.710938 -0.96875 5.1875 -1.113281 5.53125 -1.40625 C 5.875 -1.707031 6.046875 -2.09375 6.046875 -2.5625 C 6.046875 -2.9375 5.941406 -3.238281 5.734375 -3.46875 C 5.535156 -3.695312 5.285156 -3.867188 4.984375 -3.984375 C 4.679688 -4.109375 4.269531 -4.238281 3.75 -4.375 C 3.113281 -4.539062 2.601562 -4.707031 2.21875 -4.875 C 1.84375 -5.039062 1.519531 -5.300781 1.25 -5.65625 C 0.976562 -6.007812 0.84375 -6.484375 0.84375 -7.078125 C 0.84375 -7.597656 0.972656 -8.0625 1.234375 -8.46875 C 1.503906 -8.875 1.878906 -9.1875 2.359375 -9.40625 C 2.847656 -9.625 3.40625 -9.734375 4.03125 -9.734375 C 4.925781 -9.734375 5.660156 -9.507812 6.234375 -9.0625 C 6.816406 -8.613281 7.144531 -8.015625 7.21875 -7.265625 L 5.84375 -7.265625 C 5.789062 -7.640625 5.59375 -7.96875 5.25 -8.25 C 4.914062 -8.53125 4.46875 -8.671875 3.90625 -8.671875 C 3.382812 -8.671875 2.957031 -8.53125 2.625 -8.25 C 2.289062 -7.976562 2.125 -7.601562 2.125 -7.125 C 2.125 -6.769531 2.222656 -6.484375 2.421875 -6.265625 C 2.617188 -6.046875 2.863281 -5.878906 3.15625 -5.765625 C 3.445312 -5.648438 3.851562 -5.515625 4.375 -5.359375 C 5.007812 -5.191406 5.519531 -5.019531 5.90625 -4.84375 C 6.289062 -4.675781 6.617188 -4.414062 6.890625 -4.0625 C 7.171875 -3.707031 7.3125 -3.226562 7.3125 -2.625 C 7.3125 -2.15625 7.1875 -1.710938 6.9375 -1.296875 C 6.6875 -0.878906 6.316406 -0.539062 5.828125 -0.28125 C 5.347656 -0.03125 4.773438 0.09375 4.109375 0.09375 Z M 4.109375 0.09375 "/></g></g></g><g fill="#b8744f" fill-opacity="1"><g transform="translate(8.369692, 15.370494)"><g><path d="M 0.59375 -3.8125 C 0.59375 -4.582031 0.75 -5.257812 1.0625 -5.84375 C 1.375 -6.425781 1.800781 -6.878906 2.34375 -7.203125 C 2.894531 -7.523438 3.507812 -7.6875 4.1875 -7.6875 C 4.84375 -7.6875 5.414062 -7.539062 5.90625 -7.25 C 6.394531 -6.96875 6.757812 -6.613281 7 -6.1875 L 7 -7.5625 L 8.265625 -7.5625 L 8.265625 0 L 7 0 L 7 -1.40625 C 6.75 -0.96875 6.375 -0.601562 5.875 -0.3125 C 5.382812 -0.0195312 4.816406 0.125 4.171875 0.125 C 3.492188 0.125 2.882812 -0.0390625 2.34375 -0.375 C 1.800781 -0.707031 1.375 -1.171875 1.0625 -1.765625 C 0.75 -2.359375 0.59375 -3.039062 0.59375 -3.8125 Z M 7 -3.796875 C 7 -4.367188 6.882812 -4.863281 6.65625 -5.28125 C 6.425781 -5.707031 6.113281 -6.03125 5.71875 -6.25 C 5.320312 -6.476562 4.890625 -6.59375 4.421875 -6.59375 C 3.953125 -6.59375 3.523438 -6.484375 3.140625 -6.265625 C 2.753906 -6.046875 2.445312 -5.722656 2.21875 -5.296875 C 1.988281 -4.867188 1.875 -4.375 1.875 -3.8125 C 1.875 -3.226562 1.988281 -2.722656 2.21875 -2.296875 C 2.445312 -1.867188 2.753906 -1.539062 3.140625 -1.3125 C 3.523438 -1.09375 3.953125 -0.984375 4.421875 -0.984375 C 4.890625 -0.984375 5.320312 -1.09375 5.71875 -1.3125 C 6.113281 -1.539062 6.425781 -1.867188 6.65625 -2.296875 C 6.882812 -2.722656 7 -3.222656 7 -3.796875 Z M 7 -3.796875 "/></g></g></g><g fill="#b8744f" fill-opacity="1"><g transform="translate(17.695766, 15.370494)"><g><path d="M 2.3125 -10.203125 L 2.3125 0 L 1.0625 0 L 1.0625 -10.203125 Z M 2.3125 -10.203125 "/></g></g></g><g fill="#b8744f" fill-opacity="1"><g transform="translate(21.089573, 15.370494)"><g><path d="M 4.1875 -7.6875 C 4.832031 -7.6875 5.398438 -7.539062 5.890625 -7.25 C 6.390625 -6.96875 6.757812 -6.613281 7 -6.1875 L 7 -7.5625 L 8.265625 -7.5625 L 8.265625 0.171875 C 8.265625 0.859375 8.113281 1.46875 7.8125 2 C 7.519531 2.539062 7.097656 2.960938 6.546875 3.265625 C 6.003906 3.566406 5.375 3.71875 4.65625 3.71875 C 3.65625 3.71875 2.820312 3.484375 2.15625 3.015625 C 1.5 2.546875 1.113281 1.910156 1 1.109375 L 2.234375 1.109375 C 2.367188 1.566406 2.648438 1.9375 3.078125 2.21875 C 3.515625 2.5 4.039062 2.640625 4.65625 2.640625 C 5.34375 2.640625 5.90625 2.421875 6.34375 1.984375 C 6.78125 1.554688 7 0.953125 7 0.171875 L 7 -1.421875 C 6.75 -0.984375 6.378906 -0.613281 5.890625 -0.3125 C 5.398438 -0.0195312 4.832031 0.125 4.1875 0.125 C 3.507812 0.125 2.894531 -0.0390625 2.34375 -0.375 C 1.800781 -0.707031 1.375 -1.171875 1.0625 -1.765625 C 0.75 -2.359375 0.59375 -3.039062 0.59375 -3.8125 C 0.59375 -4.582031 0.75 -5.257812 1.0625 -5.84375 C 1.375 -6.425781 1.800781 -6.878906 2.34375 -7.203125 C 2.894531 -7.523438 3.507812 -7.6875 4.1875 -7.6875 Z M 7 -3.796875 C 7 -4.367188 6.882812 -4.863281 6.65625 -5.28125 C 6.425781 -5.707031 6.113281 -6.03125 5.71875 -6.25 C 5.320312 -6.476562 4.890625 -6.59375 4.421875 -6.59375 C 3.953125 -6.59375 3.523438 -6.484375 3.140625 -6.265625 C 2.753906 -6.046875 2.445312 -5.722656 2.21875 -5.296875 C 1.988281 -4.867188 1.875 -4.375 1.875 -3.8125 C 1.875 -3.226562 1.988281 -2.722656 2.21875 -2.296875 C 2.445312 -1.867188 2.753906 -1.539062 3.140625 -1.3125 C 3.523438 -1.09375 3.953125 -0.984375 4.421875 -0.984375 C 4.890625 -0.984375 5.320312 -1.09375 5.71875 -1.3125 C 6.113281 -1.539062 6.425781 -1.867188 6.65625 -2.296875 C 6.882812 -2.722656 7 -3.222656 7 -3.796875 Z M 7 -3.796875 "/></g></g></g><g fill="#b8744f" fill-opacity="1"><g transform="translate(30.415647, 15.370494)"><g><path d="M 0.59375 -3.8125 C 0.59375 -4.582031 0.75 -5.257812 1.0625 -5.84375 C 1.375 -6.425781 1.800781 -6.878906 2.34375 -7.203125 C 2.894531 -7.523438 3.507812 -7.6875 4.1875 -7.6875 C 4.84375 -7.6875 5.414062 -7.539062 5.90625 -7.25 C 6.394531 -6.96875 6.757812 -6.613281 7 -6.1875 L 7 -7.5625 L 8.265625 -7.5625 L 8.265625 0 L 7 0 L 7 -1.40625 C 6.75 -0.96875 6.375 -0.601562 5.875 -0.3125 C 5.382812 -0.0195312 4.816406 0.125 4.171875 0.125 C 3.492188 0.125 2.882812 -0.0390625 2.34375 -0.375 C 1.800781 -0.707031 1.375 -1.171875 1.0625 -1.765625 C 0.75 -2.359375 0.59375 -3.039062 0.59375 -3.8125 Z M 7 -3.796875 C 7 -4.367188 6.882812 -4.863281 6.65625 -5.28125 C 6.425781 -5.707031 6.113281 -6.03125 5.71875 -6.25 C 5.320312 -6.476562 4.890625 -6.59375 4.421875 -6.59375 C 3.953125 -6.59375 3.523438 -6.484375 3.140625 -6.265625 C 2.753906 -6.046875 2.445312 -5.722656 2.21875 -5.296875 C 1.988281 -4.867188 1.875 -4.375 1.875 -3.8125 C 1.875 -3.226562 1.988281 -2.722656 2.21875 -2.296875 C 2.445312 -1.867188 2.753906 -1.539062 3.140625 -1.3125 C 3.523438 -1.09375 3.953125 -0.984375 4.421875 -0.984375 C 4.890625 -0.984375 5.320312 -1.09375 5.71875 -1.3125 C 6.113281 -1.539062 6.425781 -1.867188 6.65625 -2.296875 C 6.882812 -2.722656 7 -3.222656 7 -3.796875 Z M 7 -3.796875 "/></g></g></g><g fill="#b8744f" fill-opacity="1"><g transform="translate(39.741721, 15.370494)"><g><path d="M 0.59375 -3.8125 C 0.59375 -4.582031 0.75 -5.257812 1.0625 -5.84375 C 1.375 -6.425781 1.800781 -6.878906 2.34375 -7.203125 C 2.894531 -7.523438 3.507812 -7.6875 4.1875 -7.6875 C 4.78125 -7.6875 5.328125 -7.550781 5.828125 -7.28125 C 6.335938 -7.007812 6.726562 -6.648438 7 -6.203125 L 7 -10.203125 L 8.265625 -10.203125 L 8.265625 0 L 7 0 L 7 -1.421875 C 6.75 -0.972656 6.378906 -0.601562 5.890625 -0.3125 C 5.398438 -0.0195312 4.832031 0.125 4.1875 0.125 C 3.507812 0.125 2.894531 -0.0390625 2.34375 -0.375 C 1.800781 -0.707031 1.375 -1.171875 1.0625 -1.765625 C 0.75 -2.359375 0.59375 -3.039062 0.59375 -3.8125 Z M 7 -3.796875 C 7 -4.367188 6.882812 -4.863281 6.65625 -5.28125 C 6.425781 -5.707031 6.113281 -6.03125 5.71875 -6.25 C 5.320312 -6.476562 4.890625 -6.59375 4.421875 -6.59375 C 3.953125 -6.59375 3.523438 -6.484375 3.140625 -6.265625 C 2.753906 -6.046875 2.445312 -5.722656 2.21875 -5.296875 C 1.988281 -4.867188 1.875 -4.375 1.875 -3.8125 C 1.875 -3.226562 1.988281 -2.722656 2.21875 -2.296875 C 2.445312 -1.867188 2.753906 -1.539062 3.140625 -1.3125 C 3.523438 -1.09375 3.953125 -0.984375 4.421875 -0.984375 C 4.890625 -0.984375 5.320312 -1.09375 5.71875 -1.3125 C 6.113281 -1.539062 6.425781 -1.867188 6.65625 -2.296875 C 6.882812 -2.722656 7 -3.222656 7 -3.796875 Z M 7 -3.796875 "/></g></g></g><g fill="#b8744f" fill-opacity="1"><g transform="translate(49.067795, 15.370494)"><g><path d="M 4.359375 0.125 C 3.648438 0.125 3.007812 -0.0351562 2.4375 -0.359375 C 1.863281 -0.679688 1.410156 -1.140625 1.078125 -1.734375 C 0.753906 -2.328125 0.59375 -3.015625 0.59375 -3.796875 C 0.59375 -4.566406 0.757812 -5.25 1.09375 -5.84375 C 1.425781 -6.4375 1.882812 -6.890625 2.46875 -7.203125 C 3.050781 -7.523438 3.703125 -7.6875 4.421875 -7.6875 C 5.128906 -7.6875 5.773438 -7.523438 6.359375 -7.203125 C 6.941406 -6.890625 7.398438 -6.4375 7.734375 -5.84375 C 8.066406 -5.257812 8.234375 -4.578125 8.234375 -3.796875 C 8.234375 -3.015625 8.0625 -2.328125 7.71875 -1.734375 C 7.375 -1.140625 6.90625 -0.679688 6.3125 -0.359375 C 5.726562 -0.0351562 5.078125 0.125 4.359375 0.125 Z M 4.359375 -0.984375 C 4.804688 -0.984375 5.226562 -1.085938 5.625 -1.296875 C 6.019531 -1.503906 6.335938 -1.820312 6.578125 -2.25 C 6.828125 -2.675781 6.953125 -3.191406 6.953125 -3.796875 C 6.953125 -4.398438 6.832031 -4.910156 6.59375 -5.328125 C 6.351562 -5.753906 6.039062 -6.070312 5.65625 -6.28125 C 5.269531 -6.488281 4.851562 -6.59375 4.40625 -6.59375 C 3.945312 -6.59375 3.523438 -6.488281 3.140625 -6.28125 C 2.753906 -6.070312 2.445312 -5.753906 2.21875 -5.328125 C 1.988281 -4.910156 1.875 -4.398438 1.875 -3.796875 C 1.875 -3.179688 1.984375 -2.660156 2.203125 -2.234375 C 2.429688 -1.804688 2.734375 -1.488281 3.109375 -1.28125 C 3.492188 -1.082031 3.910156 -0.984375 4.359375 -0.984375 Z M 4.359375 -0.984375 "/></g></g></g><g fill="#b8744f" fill-opacity="1"><g transform="translate(57.897215, 15.370494)"><g><path d="M 3.734375 0.125 C 3.160156 0.125 2.640625 0.0234375 2.171875 -0.171875 C 1.710938 -0.367188 1.347656 -0.644531 1.078125 -1 C 0.816406 -1.351562 0.675781 -1.757812 0.65625 -2.21875 L 1.953125 -2.21875 C 1.984375 -1.84375 2.15625 -1.535156 2.46875 -1.296875 C 2.789062 -1.054688 3.207031 -0.9375 3.71875 -0.9375 C 4.195312 -0.9375 4.570312 -1.039062 4.84375 -1.25 C 5.125 -1.46875 5.265625 -1.738281 5.265625 -2.0625 C 5.265625 -2.382812 5.117188 -2.625 4.828125 -2.78125 C 4.535156 -2.945312 4.082031 -3.109375 3.46875 -3.265625 C 2.90625 -3.410156 2.445312 -3.5625 2.09375 -3.71875 C 1.738281 -3.875 1.429688 -4.097656 1.171875 -4.390625 C 0.921875 -4.691406 0.796875 -5.085938 0.796875 -5.578125 C 0.796875 -5.960938 0.910156 -6.316406 1.140625 -6.640625 C 1.367188 -6.960938 1.695312 -7.21875 2.125 -7.40625 C 2.550781 -7.59375 3.035156 -7.6875 3.578125 -7.6875 C 4.410156 -7.6875 5.082031 -7.472656 5.59375 -7.046875 C 6.113281 -6.628906 6.390625 -6.050781 6.421875 -5.3125 L 5.171875 -5.3125 C 5.140625 -5.707031 4.976562 -6.023438 4.6875 -6.265625 C 4.40625 -6.503906 4.019531 -6.625 3.53125 -6.625 C 3.082031 -6.625 2.722656 -6.523438 2.453125 -6.328125 C 2.191406 -6.140625 2.0625 -5.890625 2.0625 -5.578125 C 2.0625 -5.328125 2.140625 -5.117188 2.296875 -4.953125 C 2.453125 -4.796875 2.648438 -4.664062 2.890625 -4.5625 C 3.140625 -4.46875 3.484375 -4.363281 3.921875 -4.25 C 4.460938 -4.101562 4.898438 -3.957031 5.234375 -3.8125 C 5.578125 -3.664062 5.867188 -3.453125 6.109375 -3.171875 C 6.359375 -2.890625 6.488281 -2.519531 6.5 -2.0625 C 6.5 -1.644531 6.382812 -1.269531 6.15625 -0.9375 C 5.925781 -0.601562 5.597656 -0.34375 5.171875 -0.15625 C 4.753906 0.0273438 4.273438 0.125 3.734375 0.125 Z M 3.734375 0.125 "/></g></g></g></g></g></svg>